# xmcd CD database file
#
# Track frame offsets:
#	150
#	17935
#	37690
#	51242
#	70055
#	83325
#	103327
#	118237
#	143835
#	164045
#	179732
#	196212
#	207850
#
# Disc length: 3352 seconds
#
# Revision: 7
# Processed by: cddbd v1.5.2PL0 Copyright (c) Steve Scherf et al.
# Submitted via: CDex 1.70beta2
#
DISCID=b90d160d
DTITLE=Toots Thielemans - The Brasil Project
DYEAR=1992
DGENRE=Jazz
TTITLE0=Começar de Novo
TTITLE1=Obi
TTITLE2=Felicia and Bianca
TTITLE3=O Cantador
TTITLE4=Joanna Francesa
TTITLE5=Coisa Feita
TTITLE6=Precisio Aprender a Só Ser
TTITLE7=Fruta Boa
TTITLE8=Coração Vagabundo
TTITLE9=Manhã de Carnaval
TTITLE10=Casa Fortes
TTITLE11=Moments
TTITLE12=Bluesette
EXTD=YEAR: 1992
EXTT0=
EXTT1=
EXTT2=
EXTT3=
EXTT4=
EXTT5=
EXTT6=
EXTT7=
EXTT8=
EXTT9=
EXTT10=
EXTT11=
EXTT12=
PLAYORDER=
